<?xml version="1.0" encoding="utf-8"?>
<!DOCTYPE svg PUBLIC "-//W3C//DTD SVG 1.1//EN" "http://www.w3.org/Graphics/SVG/1.1/DTD/svg11.dtd">
<svg version="1.1" id="schedule" xmlns="http://www.w3.org/2000/svg" xmlns:xlink="http://www.w3.org/1999/xlink" x="0px" y="0px"
	 width="64px" height="64px" viewBox="0 0 64 64" enable-background="new 0 0 64 64" xml:space="preserve">
<path fill-rule="evenodd" clip-rule="evenodd" d="M57.993,63.987H5.999c-2.208,0-4-1.791-4-3.999V19.994v-4V7.994
	c0-2.209,1.791-4,4-4h11.999v-4.001h4v4.001h19.999v-4.001h3.999v4.001h13.999c2.209,0,2,1.791,2,4v8.001v4v39.994
	C61.994,62.196,60.203,63.987,57.993,63.987z M57.993,9.995c0-1.109-0.896-2.001-2-2.001h-9.998v4.001h-3.999V7.994H21.997v4.001h-4
	V7.994H8c-1.105,0-2.001,0.892-2.001,2.001v6h51.995V9.995z M57.993,19.994H5.999v37.992c0,1.107,0.896,2.002,2.001,2.002h47.994
	c1.104,0,2-0.895,2-2.002V19.994z M41.996,43.988h11.998v12H41.996V43.988z M45.995,51.99h3.999v-4.004h-3.999V51.99z
	 M41.996,27.993h11.998v11.995H41.996V27.993z M45.995,35.99h3.999v-4h-3.999V35.99z M25.996,43.988h11.999v12H25.996V43.988z
	 M29.996,51.99h4v-4.004h-4V51.99z M25.996,27.993h11.999v11.995H25.996V27.993z M29.996,35.99h4v-4h-4V35.99z M10,43.988h11.998v12
	H10V43.988z M13.998,51.99h4v-4.004h-4V51.99z M10,27.993h11.998v11.995H10V27.993z M13.998,35.99h4v-4h-4V35.99z"/>
</svg>
