<?xml version="1.0" standalone="no"?>
<!DOCTYPE svg PUBLIC "-//W3C//DTD SVG 1.1//EN" "http://www.w3.org/Graphics/SVG/1.1/DTD/svg11.dtd" >
<svg xmlns="http://www.w3.org/2000/svg">
<metadata>Generated by IcoMoon</metadata>
<defs>
<font id="seo-checks" horiz-adv-x="1024">
<font-face units-per-em="1024" ascent="960" descent="-64" />
<missing-glyph horiz-adv-x="1024" />
<glyph unicode="&#x20;" horiz-adv-x="512" d="" />
<glyph unicode="&#xe900;" glyph-name="poor" d="M693.648 331.248c-74.8 48.688-117.648 76-117.648 116.752s42.848 68.080 117.648 116.752c120.464 75.68 202.352 224.288 202.352 395.248h-768c0-170.944 81.888-319.552 202.352-395.248 74.8-48.688 117.648-76 117.648-116.752s-42.848-68.080-117.664-116.752c-120.448-75.68-202.336-224.288-202.336-395.248h768c0 170.944-81.888 319.552-202.352 395.248zM259.632 766.176c-17.552 33.584-30.304 70.224-37.936 108.48h580.608c-7.632-38.272-20.384-74.896-37.936-108.48-11.792-22.544-25.536-43.392-40.928-62.176h-422.88c-15.392 18.8-29.152 39.632-40.928 62.176zM496 194.384c0-43.568-176-109.040-176-173.040h-98.304c7.632 38.272 20.384 74.896 37.936 108.48 28.608 54.752 68.768 99.424 116.112 129.168l1.152 0.736 3.088 2.016c46.704 30.4 88.064 57.328 116.016 89.536v-156.88zM802.304 21.328h-98.304c0 64-176 129.488-176 173.040v156.88c27.968-32.208 69.312-59.136 116.016-89.536l3.664-2.384 0.576-0.368c47.344-29.744 87.504-74.416 116.112-129.168 17.552-33.584 30.304-70.208 37.936-108.48z" />
<glyph unicode="&#xe901;" glyph-name="bad" d="M893.248 738.752l-90.512 90.512-290.752-290.752-290.752 290.752-90.512-90.512 290.752-290.752-290.752-290.752 90.512-90.512 290.752 290.752 290.752-290.752 90.512 90.512-290.752 290.752z" />
<glyph unicode="&#xe902;" glyph-name="good" d="M896 800l-544-544-224 224-96-96 320-320 640 640z" />
<glyph unicode="&#xe903;" glyph-name="keyword" d="M732 960c-161.008 0-292-130.992-292-292 0-67.552 23.072-129.824 61.728-179.36l-427.2-427.184c-14.048-14.064-14.048-36.848 0-50.912 7.024-7.040 16.24-10.544 25.456-10.544s18.432 3.52 25.456 10.544l130.544 130.544 77.088-77.088-66.544-66.544c-14.064-14.064-14.064-36.848 0-50.912 7.024-7.040 16.24-10.544 25.456-10.544s18.432 3.52 25.456 10.544l184 184c14.064 14.064 14.064 36.848 0 50.912s-36.848 14.064-50.912 0l-66.544-66.544-77.088 77.088 245.728 245.728c49.536-38.656 111.792-61.728 179.344-61.728 161.008 0 292 130.992 292 292s-130.992 292-292 292zM732 448c-121.312 0-220 98.688-220 220s98.688 220 220 220c121.312 0 220-98.688 220-220s-98.688-220-220-220z" />
<glyph unicode="&#xe904;" glyph-name="seo-title" horiz-adv-x="1280" d="M1216 896v-368c0-9.44-8.528-30.016-15.2-36.688l-464.8-464.8-389.488 389.488 464.8 464.8c6.672 6.672 27.248 15.2 36.688 15.2h368zM1232 960h-384c-26.4 0-63.28-15.28-81.936-33.936l-476.112-476.112c-18.672-18.672-18.672-49.216 0-67.888l412.112-412.112c9.328-9.328 21.632-14 33.936-14s24.608 4.672 33.936 14l476.112 476.112c18.656 18.672 33.936 55.536 33.936 81.936v384c0 26.4-21.6 48-48 48v0zM1088 672c0-53.024-42.976-96-96-96s-96 42.976-96 96c0 53.024 42.976 96 96 96s96-42.976 96-96zM634.512 960h-42.512c-26.4 0-63.28-15.28-81.936-33.936l-476.112-476.112c-18.672-18.672-18.672-49.216 0-67.888l412.112-412.112c9.328-9.328 21.632-14 33.936-14s24.608 4.672 33.936 14l11.312 11.312-434.752 434.752 544 544z" />
<glyph unicode="&#xe905;" glyph-name="arrow-left" d="M672-64l64 64-448 448 448 448-64 64-512-512 512-512z" />
<glyph unicode="&#xe906;" glyph-name="arrow-right" d="M352 960l-64-64 448-448-448-448 64-64 512 512-512 512z" />
<glyph unicode="&#xe907;" glyph-name="cron" d="M658.752 210.752l-210.752 210.752v282.512h128v-229.488l173.248-173.248zM512 960c-282.768 0-512-229.232-512-512s229.232-512 512-512 512 229.232 512 512-229.232 512-512 512zM512 64c-212.080 0-384 171.92-384 384s171.92 384 384 384c212.080 0 384-171.92 384-384s-171.92-384-384-384z" />
<glyph unicode="&#xe908;" glyph-name="cross2" d="M893.248 738.752l-90.512 90.512-290.752-290.752-290.752 290.752-90.512-90.512 290.752-290.752-290.752-290.752 90.512-90.512 290.752 290.752 290.752-290.752 90.512 90.512-290.752 290.752z" />
<glyph unicode="&#xe909;" glyph-name="mobile" d="M736 960h-448c-52.8 0-96-43.2-96-96v-832c0-52.8 43.2-96 96-96h448c52.8 0 96 43.2 96 96v832c0 52.8-43.2 96-96 96zM384 912h256v-32h-256v32zM512 0c-35.344 0-64 28.656-64 64s28.656 64 64 64 64-28.656 64-64-28.656-64-64-64zM768 192h-512v640h512v-640z" />
<glyph unicode="&#xe90a;" glyph-name="display" d="M0 896v-640h1024v640h-1024zM960 320h-896v512h896v-512zM672 192h-320l-32-128-64-64h512l-64 64z" />
<glyph unicode="&#xe90b;" glyph-name="checkmark3" d="M896 800l-544-544-224 224-96-96 320-320 640 640z" />
<glyph unicode="&#xe90c;" glyph-name="arrow-right4" d="M352 960l-64-64 448-448-448-448 64-64 512 512-512 512z" />
<glyph unicode="&#xe90d;" glyph-name="arrow-down4" d="M1024 608l-64 64-448-448-448 448-64-64 512-512 512 512z" />
<glyph unicode="&#xe90e;" glyph-name="arrow-left4" d="M672-64l64 64-448 448 448 448-64 64-512-512 512-512z" />
<glyph unicode="&#xe90f;" glyph-name="arrow-down5" d="M224 576l288-288 288 288h-576z" />
<glyph unicode="&#xe910;" glyph-name="arrow-up4" d="M0 288l64-64 448 448 448-448 64 64-512 512-512-512z" />
<glyph unicode="&#xe911;" glyph-name="search3" d="M992.256 88.608l-242.56 206.288c-25.072 22.56-51.888 32.928-73.552 31.92 57.248 67.072 91.84 154.080 91.84 249.168 0 212.080-171.92 384-384 384s-384-171.92-384-384c0-212.080 171.92-384 384-384 95.104 0 182.112 34.592 249.184 91.84-1.008-21.664 9.36-48.48 31.92-73.552l206.288-242.56c35.328-39.248 93.024-42.56 128.224-7.36s31.888 92.896-7.36 128.224zM384 320c-141.376 0-256 114.608-256 256s114.608 256 256 256 256-114.608 256-256-114.608-256-256-256z" />
<glyph unicode="&#xe912;" glyph-name="arrows-h" d="M852.8 600c-12.8 11.2-33.6 11.2-44.8-3.2s-11.2-33.6 3.2-44.8l81.6-72h-760l81.6 72c12.8 11.2 14.4 32 3.2 44.8s-32 14.4-44.8 3.2l-172.8-152 171.2-152c6.4-4.8 14.4-8 20.8-8 9.6 0 17.6 3.2 24 11.2 11.2 12.8 11.2 33.6-3.2 44.8l-80 72h760l-81.6-72c-12.8-11.2-14.4-32-3.2-44.8 6.4-6.4 14.4-11.2 24-11.2 8 0 14.4 3.2 20.8 8l171.2 152-171.2 152z" />
<glyph unicode="&#xe913;" glyph-name="arrow-down" d="M758.4 416c-12.8 12.8-33.6 12.8-44.8 0l-169.6-171.2v484.8c0 17.6-14.4 32-32 32s-32-14.4-32-32v-484.8l-169.6 171.2c-12.8 12.8-32 12.8-44.8 0s-12.8-32 0-44.8l246.4-249.6 246.4 251.2c12.8 11.2 12.8 32 0 43.2z" />
<glyph unicode="&#xe914;" glyph-name="arrow-up" d="M758.4 524.8l-246.4 249.6-246.4-249.6c-12.8-12.8-12.8-33.6 0-44.8 12.8-12.8 33.6-12.8 44.8 0l169.6 171.2v-484.8c0-17.6 14.4-32 32-32s32 14.4 32 32v484.8l169.6-171.2c6.4-6.4 14.4-9.6 22.4-9.6s16 3.2 22.4 9.6c12.8 11.2 12.8 32 0 44.8z" />
<glyph unicode="&#xe915;" glyph-name="arrow-right5" d="M384 160l288 288-288 288v-576z" />
<glyph unicode="&#xe916;" glyph-name="minus3" d="M64 512h896v-128h-896v128z" />
<glyph unicode="&#xe917;" glyph-name="plus3" d="M960 512h-384v384h-128v-384h-384v-128h384v-384h128v384h384z" />
<glyph unicode="&#xe918;" glyph-name="alexa" d="M511.82-63.979c-280.089 0.488-510.356 223.965-511.82 509.019-1.464 286.879 226.893 513.114 507.873 514.96 1.571 0.017 3.427 0.027 5.285 0.027 282.143 0 510.865-228.722 510.865-510.865 0-0.442-0.001-0.884-0.002-1.326v0.068c0-282.677-229.354-511.968-512.202-511.883zM937.724 448.796c-0.912 236.42-192.54 427.369-429.321 425.162-233.583-1.721-422.274-191.475-422.274-425.3 0-1.421 0.007-2.841 0.021-4.258l-0.002 0.216c1.761-231.922 188.848-422.425 425.82-422.382 241.64 0.021 426.796 197.229 425.756 426.562zM598.605 305.165c-12.222-11.458-23.192-21.898-34.311-32.147-28.179-25.993-61.089-41.716-99.474-45.132-29.409-2.61-58.797-1.973-87.209 6.726-77.406 23.723-99.474 107.855-44.241 167.82 24.529 26.608 55.699 43.074 88.589 56.591 52.665 21.643 107.834 33.25 164.191 39.488 8.488 0.955 11.416 3.777 11.119 12.349-0.615 17.293-0.424 34.65-0.17 51.965 0.594 40.592-19.627 68.579-55.445 83.602-41.207 17.272-82.584 12.731-121.138-9.655-22.768-13.262-24.296-24.147-8.869-45.451 10.079-13.92 17.315-28.454 12.859-46.257-4.732-18.864-17.23-29.706-36.072-32.677-21.516-3.289-40.061 2.631-53.047 21.113-14.471 20.603-12.562 53.281 5.050 78.807 23.765 34.417 57.461 55.169 97.14 65.778 47.912 12.731 96.567 14.195 144.564 0.552 46.512-13.219 79.019-41.419 88.376-91.241 0.72-4.592 1.131-9.888 1.131-15.28 0-1.342-0.025-2.679-0.076-4.009l0.006 0.192c0-78.128-0.127-156.256 0.212-234.362-0.005-0.415-0.007-0.906-0.007-1.398 0-11.781 1.551-23.201 4.46-34.064l-0.209 0.918c7.618-27.203 29.834-36.9 55.466-25.335 5.453 2.461 10.609 5.538 16.975 8.933l14.556-22.874c-27.457-27.224-58.882-39.446-96.779-30.534-39.382 9.273-53.323 42.077-67.646 75.582zM597.523 468.253c-25.463-5.772-48.485-9.867-70.765-16.211-46.809-13.304-89.522-34.99-125.191-68.579-21.495-20.264-26.142-45.769-15.426-72.993 10.843-27.584 31.425-43.329 61.789-43.117 58.755 0.424 100.959 31.086 132.384 77.343 24.975 36.857 14.726 79.74 17.208 123.557z" />
</font>
</defs>
</svg>
